<?xml version="1.0" encoding="UTF-8"?>
<svg id="Layer_1" data-name="Layer 1" xmlns="http://www.w3.org/2000/svg" viewBox="0 0 213.81 109.48">
  <defs>
    <style>
      .cls-1 {
        fill: #fff;
      }

      .cls-2 {
        font-family: Superclarendon-Regular, Superclarendon;
        font-size: 71.34px;
      }

      .cls-3 {
        font-family: Courier-Bold, Courier;
        font-size: 50.63px;
        letter-spacing: -.02em;
      }
    </style>
  </defs>
  <path class="cls-1" d="M4.8,3.05s31.04,66.17,50.49,65.63c0,0,5.59,.55,20.07-32.81,14.48-33.36,30.42,21.33,30.42,21.33,0,0,6.41,21.33,23.17-3.01,16.76-24.34,22.35-38.28,22.35-38.28,0,0-22.13,82.13-38.55,74.51-1.07-.5-1.88-1.44-2.34-2.55-2.89-6.94-16.79-38.42-26.57-27.94-10.97,11.76-16.97,56.88-36,41.56C28.8,86.17,4.8,3.05,4.8,3.05Z"/>
  <text class="cls-1" transform="translate(124.61 91.37) scale(1.06 1)"><tspan class="cls-2" x="0" y="0">.</tspan><tspan class="cls-3" x="23.4" y="0">ai</tspan></text>
</svg>
